<?xml version="1.0" encoding="UTF-8"?>
<svg xmlns="http://www.w3.org/2000/svg" width="512" height="512" viewBox="0 0 512 512" fill="none"> <g clip-path="url(#clip0)"> <path d="M213.37 426.602C251.566 426.638 289.062 416.351 321.893 396.83L346.169 421.039C353.563 428.422 365.529 428.459 372.971 421.124L453.718 501.872C460.106 508.302 468.793 511.923 477.856 511.933C486.919 511.942 495.614 508.34 502.015 501.923C515.328 488.596 515.328 467.004 502.015 453.677L421.216 372.844C428.555 365.406 428.518 353.44 421.13 346.051L396.922 321.775C446.104 238.484 433.072 132.524 365.173 63.6339C297.275 -5.25665 191.515 -19.8235 107.521 28.146C23.5256 76.1155 -17.6656 174.607 7.16818 268.092C32.002 361.577 116.644 426.641 213.37 426.602ZM489.898 489.908C483.156 496.335 472.55 496.312 465.836 489.857L385.045 409.067L409.159 384.953L489.95 465.743C493.153 468.951 494.947 473.302 494.938 477.836C494.928 482.37 493.115 486.713 489.898 489.908ZM409.057 358.15C409.427 358.515 409.633 359.014 409.629 359.533C409.631 360.058 409.422 360.562 409.049 360.932L360.991 408.973C360.671 409.426 360.151 409.697 359.596 409.697C359.041 409.697 358.52 409.427 358.201 408.973L336.51 387.35C356.228 373.357 373.447 356.141 387.443 336.426L409.057 358.15ZM213.37 17.019C321.761 17.019 409.629 104.887 409.629 213.278C409.629 321.668 321.761 409.536 213.37 409.536C104.98 409.536 17.1118 321.668 17.1118 213.278C17.2344 104.938 105.03 17.1417 213.37 17.019Z" fill="#EB2925"/> <path d="M213.372 392.47C312.337 392.47 392.564 312.243 392.564 213.278C392.564 114.313 312.337 34.0854 213.372 34.0854C114.407 34.0854 34.1797 114.313 34.1797 213.278C34.2922 312.197 114.453 392.358 213.372 392.47ZM213.372 51.1517C302.912 51.1517 375.498 123.738 375.498 213.278C375.498 302.817 302.912 375.404 213.372 375.404C123.833 375.404 51.2451 302.818 51.2451 213.278C51.3442 123.779 123.873 51.2499 213.372 51.1517Z" fill="#EB2925"/> <path d="M349.899 272.923V238.792C349.924 235.122 348.722 231.547 346.486 228.637L308.087 177.44C304.851 173.158 299.801 170.633 294.434 170.613H276.404L289.723 130.645C290.705 127.693 290.002 124.441 287.889 122.158C285.776 119.874 282.588 118.922 279.569 119.672L254.115 126.028L247.332 92.1101C246.638 88.6576 243.896 85.9861 240.426 85.3839C236.957 84.7818 233.474 86.3716 231.657 89.3883L213.37 119.893L195.084 89.4218C193.267 86.406 189.783 84.8154 186.314 85.4175C182.845 86.0197 180.102 88.6912 179.408 92.1437L172.625 126.028L147.171 119.672C144.152 118.922 140.964 119.874 138.851 122.158C136.738 124.441 136.035 127.693 137.017 130.645L150.337 170.613H138.708C133.803 170.611 129.136 172.73 125.908 176.424L81.0253 227.724C78.3378 230.819 76.853 234.778 76.8438 238.877V273.009C76.8438 282.434 84.4845 290.075 93.91 290.075H332.833C342.278 290.042 349.913 282.368 349.899 272.923ZM93.91 255.943H332.833V273.009H93.91V255.943ZM138.708 187.679H156.03L162.617 207.441C163.581 210.337 166.016 212.499 169.006 213.113C171.996 213.727 175.086 212.699 177.112 210.416C179.139 208.134 179.794 204.944 178.83 202.048L158.146 139.997L177.209 144.758C179.461 145.311 181.842 144.923 183.803 143.683C185.764 142.444 187.135 140.459 187.602 138.188L191.817 117.162L206.059 140.909C207.711 143.321 210.448 144.763 213.371 144.763C216.294 144.763 219.031 143.321 220.683 140.909L234.925 117.162L239.14 138.188C239.598 140.474 240.972 142.472 242.941 143.72C244.911 144.967 247.305 145.355 249.568 144.792L268.63 140.031L247.946 202.083C246.983 204.978 247.638 208.169 249.664 210.451C251.691 212.733 254.781 213.761 257.77 213.148C260.76 212.534 263.196 210.372 264.159 207.475L270.712 187.679H294.434L332.833 238.877H93.91L138.708 187.679Z" fill="#EB2925"/> <path fill-rule="evenodd" clip-rule="evenodd" d="M213.369 170.612C208.656 170.612 204.836 174.433 204.836 179.145V204.744C204.836 209.456 208.656 213.277 213.369 213.277C218.081 213.277 221.901 209.456 221.901 204.744V179.145C221.901 174.433 218.081 170.612 213.369 170.612Z" fill="#EB2925"/> </g> <defs> <clipPath id="clip0"> <rect width="512" height="512" fill="white"/> </clipPath> </defs> </svg>